<?xml version="1.0" encoding="UTF-8"?>
<svg id="Layer_1" data-name="Layer 1" xmlns="http://www.w3.org/2000/svg" viewBox="0 0 336.4 142.29">
  <defs>
    <style>
      .cls-1 {
        fill: #fff;
      }
    </style>
  </defs>
  <g>
    <path class="cls-1" d="M329.68,25.55c-3.96-5.62-12.91-15.62-28.74-16.87-.83-.21-1.87-.21-2.71-.21-3.33,0-6.25,.21-9.37,.83-13.54,2.71-23.54,11.25-28.53,24.37-.83,1.67-3.96,10.62-1.25,15.2,.83,1.46,2.29,2.29,4.17,2.5h1.46c4.17-.62,5.42-5.42,6.67-10,1.04-3.54,2.08-6.46,3.33-8.33,4.37-6.87,12.71-11.87,21.04-12.29,6.25-.42,12.08,1.46,17.49,5.62,2.92,2.29,5.83,5.83,7.71,9.37,3.96,7.29,3.54,17.7-.83,24.37-1.87,2.92-4.17,5.21-6.46,7.91-5.21,5.83-10.62,11.66-12.08,21.87,0,1.25-.21,2.71-.21,4.17-.21,2.08-.21,4.58-.83,6.04-1.25,2.71-3.54,5-6.04,5.62-.42,.21-1.46,.21-2.08,.21-2.5,.21-7.29,.21-8.33,4.79-.63,3.33,1.25,6.67,4.58,7.91,.83,.42,1.67,.62,2.71,.62h1.25c3.75,0,7.5-1.46,8.54-1.87,6.04-2.71,10.21-6.87,11.87-12.5,.83-3.12,1.04-6.04,1.25-8.96,0-2.08,.21-4.17,.62-5.83,1.46-6.46,5.42-10.62,9.37-15,3.33-3.54,6.67-7.5,9.16-12.71,5.83-13.12,2.29-28.33-3.75-36.87Z"/>
    <path class="cls-1" d="M296.35,62.21h1.04c1.04,0,1.87-.21,3.33-.42,5.21-1.46,8.54-6.67,7.91-12.5-.63-5.62-4.58-10-10.21-10.41-1.04-.21-2.08-.21-3.12,0-6.25,1.04-10.21,5.21-10,11.04,0,5.41,4.37,11.66,11.04,12.29Z"/>
  </g>
  <g>
    <g>
      <path class="cls-1" d="M29.93,9.75c-.27,.55-.69,.82-.96,1.1-.27,.27-.69,.41-1.24,.41s-.96-.14-1.51-.55c-.55-.27-1.24-.69-1.92-1.1-.69-.41-1.65-.82-2.61-1.1-.96-.27-2.06-.55-3.43-.55-2.33,0-3.98,.55-5.08,1.51-1.24,.96-1.78,2.33-1.78,3.98,0,1.1,.27,1.92,.96,2.61s1.51,1.24,2.47,1.78c.96,.55,2.2,.96,3.43,1.37,1.24,.41,2.61,.82,3.98,1.24,1.37,.41,2.75,.96,3.98,1.65,1.24,.69,2.47,1.37,3.43,2.47,.96,.96,1.78,2.2,2.47,3.57,.69,1.37,.96,3.16,.96,5.08,0,2.2-.41,4.26-1.1,6.18-.82,1.92-1.78,3.57-3.29,4.94-1.37,1.37-3.16,2.47-5.35,3.29-2.2,.82-4.53,1.24-7.14,1.24-1.51,0-3.02-.14-4.53-.41-1.51-.27-3.02-.69-4.39-1.24-1.37-.55-2.75-1.24-3.98-1.92-1.24-.82-2.33-1.65-3.29-2.61l3.16-4.8c.27-.41,.55-.69,.96-.82,.41-.27,.82-.41,1.24-.41,.55,0,1.24,.27,1.92,.69s1.37,.96,2.33,1.51c.82,.55,1.78,.96,3.02,1.51,1.1,.41,2.47,.69,4.12,.69,2.33,0,4.12-.55,5.35-1.65,1.24-1.1,1.92-2.61,1.92-4.67,0-1.24-.27-2.2-.96-2.88s-1.51-1.37-2.47-1.92c-.96-.55-2.2-.96-3.43-1.24-1.24-.41-2.61-.82-3.98-1.24-1.37-.41-2.75-.96-3.98-1.65-1.24-.55-2.47-1.37-3.43-2.47-.96-.96-1.78-2.2-2.47-3.71-.82-1.65-1.24-3.43-1.24-5.63,0-1.78,.41-3.57,1.1-5.22,.69-1.65,1.78-3.16,3.16-4.39s3.02-2.33,5.08-3.16C13.45,.41,15.65,0,18.26,0,21.14,0,23.75,.41,26.22,1.37c2.47,.82,4.53,2.06,6.18,3.71l-2.47,4.67Z"/>
      <path class="cls-1" d="M86.48,24.43c0,3.43-.55,6.73-1.78,9.75s-2.88,5.63-4.94,7.69c-2.06,2.06-4.67,3.84-7.69,5.08-3.02,1.24-6.31,1.92-10.02,1.92s-7-.69-10.02-1.92c-3.02-1.24-5.63-2.88-7.69-5.08-2.06-2.2-3.84-4.8-4.94-7.69-1.24-3.02-1.78-6.18-1.78-9.75s.55-6.73,1.78-9.75c1.24-3.02,2.88-5.49,4.94-7.69,2.06-2.2,4.67-3.84,7.69-5.08,3.02-1.24,6.31-1.92,10.02-1.92s7,.69,10.02,1.92,5.63,3.02,7.69,5.08c2.06,2.06,3.84,4.8,4.94,7.69,1.24,3.02,1.78,6.31,1.78,9.75Zm-10.16,0c0-2.47-.27-4.8-.96-6.73-.69-1.92-1.65-3.71-2.88-5.08-1.24-1.37-2.75-2.47-4.53-3.16-1.78-.69-3.71-1.1-6.04-1.1-2.2,0-4.26,.41-6.04,1.1-1.78,.69-3.29,1.78-4.53,3.16-1.24,1.37-2.2,3.02-2.88,5.08-.69,1.92-.96,4.26-.96,6.73s.27,4.8,.96,6.73c.69,1.92,1.65,3.71,2.88,5.08,1.24,1.37,2.75,2.47,4.53,3.16,1.78,.69,3.84,1.1,6.04,1.1s4.26-.41,6.04-1.1c1.78-.69,3.29-1.78,4.53-3.16,1.24-1.37,2.2-3.02,2.88-5.08,.69-1.92,.96-4.26,.96-6.73Z"/>
      <path class="cls-1" d="M113.25,40.5c1.65,0,3.02-.27,4.26-.82,1.24-.55,2.33-1.24,3.29-2.33,.96-1.1,1.65-2.2,2.06-3.57,.41-1.37,.69-3.02,.69-4.8V.55h9.88V28.96c0,2.88-.41,5.63-1.37,7.96-.96,2.47-2.33,4.53-3.98,6.31-1.78,1.78-3.84,3.16-6.31,4.12-2.47,.96-5.22,1.51-8.37,1.51s-5.9-.55-8.37-1.51c-2.47-.96-4.67-2.33-6.31-4.12-1.78-1.78-3.02-3.84-3.98-6.31-.96-2.47-1.37-5.08-1.37-7.96V.55h9.88V28.96c0,1.78,.27,3.29,.69,4.8,.41,1.37,1.1,2.61,2.06,3.57,.82,.96,1.92,1.78,3.29,2.33,.96,.55,2.47,.82,3.98,.82Z"/>
      <path class="cls-1" d="M149.08,.55c.27,0,.55,.14,.82,.27,.27,.14,.41,.27,.69,.41s.41,.41,.69,.82l24.02,30.48c-.14-.82-.14-1.65-.14-2.47V.55h8.79V48.32h-5.08c-.82,0-1.37-.14-1.92-.41-.55-.27-1.1-.69-1.51-1.24l-23.89-30.34c0,.82,.14,1.51,.14,2.2v29.65h-8.79V.55h6.18Z"/>
      <path class="cls-1" d="M236.66,24.43c0,3.43-.55,6.73-1.78,9.61-1.24,2.88-2.88,5.49-4.94,7.55-2.2,2.06-4.67,3.71-7.69,4.94-3.02,1.24-6.31,1.78-10.02,1.78h-18.39V.55h18.39c3.71,0,7,.55,10.02,1.78,3.02,1.24,5.63,2.88,7.69,4.94,2.2,2.06,3.84,4.67,4.94,7.55,1.24,2.88,1.78,6.18,1.78,9.61Zm-10.16,0c0-2.47-.27-4.8-.96-6.73-.69-1.92-1.65-3.71-2.88-5.08-1.24-1.37-2.75-2.47-4.53-3.16-1.78-.69-3.71-1.1-6.04-1.1h-8.37V40.63h8.37c2.2,0,4.26-.41,6.04-1.1,1.78-.69,3.29-1.78,4.53-3.16,1.24-1.37,2.2-3.16,2.88-5.08,.69-1.92,.96-4.39,.96-6.86Z"/>
    </g>
    <g>
      <g>
        <path class="cls-1" d="M13.45,65.75c0,.82-.14,1.51-.41,2.2-.27,.69-.69,1.24-1.24,1.78-.55,.55-1.1,.96-1.78,1.24-.69,.27-1.51,.41-2.2,.41-.82,0-1.51-.14-2.2-.41-.69-.27-1.24-.69-1.78-1.24-.55-.55-.96-1.1-1.24-1.78-.27-.69-.41-1.37-.41-2.2s.14-1.51,.41-2.2c.27-.69,.69-1.24,1.24-1.78,.55-.55,1.1-.96,1.78-1.24,.69-.27,1.37-.41,2.2-.41s1.51,.14,2.2,.41c.69,.27,1.37,.69,1.78,1.24,.55,.55,.96,1.1,1.24,1.78,.14,.69,.41,1.37,.41,2.2Zm-1.24,9.88v34.59H3.02v-34.59H12.22Z"/>
        <path class="cls-1" d="M45.16,110.23c-1.24,0-1.92-.55-2.33-1.65l-.82-3.02c-1.37,1.51-3.02,2.75-4.67,3.71-1.78,.96-3.84,1.37-6.18,1.37-1.92,0-3.57-.41-5.08-1.24-1.51-.82-2.88-1.92-3.98-3.43-1.1-1.51-2.06-3.29-2.61-5.49-.69-2.2-.96-4.67-.96-7.55,0-2.61,.41-4.94,1.1-7.14,.69-2.2,1.65-4.12,3.02-5.77,1.24-1.65,2.88-2.88,4.67-3.84,1.78-.96,3.84-1.37,6.04-1.37,1.92,0,3.43,.27,4.8,.82,1.24,.55,2.47,1.37,3.57,2.33v-17.85h9.2v49.97h-5.77v.14Zm-10.84-6.73c1.65,0,3.02-.27,4.12-.96,1.1-.69,2.2-1.51,3.16-2.75v-15.24c-.82-.96-1.78-1.65-2.88-2.06-.96-.41-2.06-.55-3.29-.55-1.1,0-2.2,.27-3.02,.69-.96,.41-1.65,1.1-2.33,2.06-.69,.96-1.24,2.06-1.51,3.43-.41,1.37-.55,3.02-.55,5.08,0,1.92,.14,3.57,.41,4.94s.69,2.47,1.24,3.29c.55,.82,1.24,1.37,2.06,1.78,.82,.14,1.65,.27,2.61,.27Z"/>
        <path class="cls-1" d="M109.68,61.5v7.82h-20.87v12.49h16.2v7.55h-16.2v12.77h20.87v7.82h-31.02V61.36h31.02v.14h0Z"/>
        <path class="cls-1" d="M159.79,110.23h-7.82c-.82,0-1.65-.27-2.2-.69-.55-.41-.96-.96-1.24-1.65l-3.29-9.33h-19.36l-3.29,9.33c-.27,.55-.55,1.1-1.24,1.51-.55,.41-1.24,.69-2.06,.69h-7.82l19.08-48.6h10.3l18.94,48.73Zm-31.44-18.53h14.55l-5.22-14.83c-.27-.82-.69-1.65-.96-2.75-.41-1.1-.69-2.2-.96-3.43-.27,1.24-.69,2.33-.96,3.43-.27,1.1-.69,1.92-.96,2.75l-5.49,14.83Z"/>
        <path class="cls-1" d="M174.34,91.56v18.53h-10.02V61.5h15.24c3.43,0,6.31,.41,8.79,1.1,2.47,.69,4.39,1.65,5.9,2.88,1.51,1.24,2.61,2.75,3.43,4.53,.69,1.78,1.1,3.71,1.1,5.77,0,1.65-.27,3.16-.69,4.53-.41,1.51-1.1,2.75-2.06,3.98-.82,1.24-1.92,2.2-3.16,3.16-1.24,.96-2.75,1.65-4.39,2.2,.69,.41,1.24,.82,1.78,1.24,.55,.55,1.1,1.1,1.51,1.78l11.39,17.57h-9.06c-1.65,0-2.88-.69-3.71-1.92l-9.2-14.96c-.41-.55-.82-.96-1.24-1.24s-1.1-.41-2.06-.41h-3.57v-.14h0Zm0-7h5.22c1.65,0,3.02-.27,4.26-.69s2.2-.96,2.88-1.65c.82-.69,1.37-1.65,1.65-2.61,.41-.96,.55-2.06,.55-3.16,0-2.33-.82-4.12-2.33-5.35s-3.84-1.92-7-1.92h-5.22v15.38h0Z"/>
        <path class="cls-1" d="M234.19,70.83c-.27,.55-.69,.82-.96,1.1-.27,.27-.69,.41-1.24,.41s-.96-.14-1.65-.55-1.24-.69-2.06-1.1c-.82-.41-1.65-.82-2.61-1.1-.96-.41-2.2-.55-3.43-.55-2.33,0-4.12,.55-5.22,1.51-1.1,1.1-1.78,2.33-1.78,4.12,0,1.1,.27,1.92,.96,2.61,.69,.69,1.51,1.37,2.47,1.78,1.1,.55,2.2,.96,3.57,1.37,1.37,.41,2.61,.82,4.12,1.37,1.37,.55,2.75,1.1,4.12,1.65,1.37,.69,2.47,1.51,3.57,2.47,1.1,.96,1.92,2.2,2.47,3.57,.69,1.37,.96,3.16,.96,5.22,0,2.2-.41,4.26-1.1,6.18-.82,1.92-1.92,3.57-3.29,5.08-1.51,1.51-3.29,2.61-5.35,3.43-2.2,.82-4.53,1.24-7.28,1.24-1.51,0-3.02-.14-4.67-.41-1.51-.27-3.02-.69-4.39-1.37-1.37-.55-2.75-1.24-3.98-2.06s-2.33-1.65-3.29-2.61l3.02-4.8c.27-.41,.55-.69,.96-.82,.41-.27,.82-.41,1.24-.41,.55,0,1.24,.27,1.92,.69s1.51,.96,2.33,1.51c.82,.55,1.92,.96,3.02,1.51,1.1,.41,2.47,.69,4.12,.69,2.33,0,4.12-.55,5.49-1.65,1.24-1.1,1.92-2.61,1.92-4.8,0-1.24-.27-2.2-.96-3.02-.69-.82-1.51-1.37-2.47-1.92-.96-.55-2.2-.96-3.57-1.37-1.37-.41-2.61-.82-4.12-1.24-1.37-.41-2.75-.96-4.12-1.65-1.37-.69-2.47-1.51-3.57-2.47-.96-.96-1.92-2.33-2.47-3.84-.69-1.51-.96-3.43-.96-5.63,0-1.78,.41-3.57,1.1-5.22,.69-1.65,1.78-3.16,3.16-4.53,1.37-1.37,3.16-2.33,5.08-3.16,2.06-.82,4.39-1.24,7-1.24,2.88,0,5.63,.41,8.1,1.37,2.47,.96,4.53,2.2,6.31,3.71l-2.47,4.94Z"/>
      </g>
      <circle class="cls-1" cx="64.93" cy="86.21" r="5.63"/>
    </g>
  </g>
  <g>
    <path class="cls-1" d="M174.78,137.72h.28c.14,0,.14,.14,.28,.14l1.53,1.66c-.69,.83-1.53,1.53-2.64,2.08-.97,.42-2.22,.69-3.75,.69-1.25,0-2.5-.28-3.47-.69-.97-.42-1.94-1.11-2.64-1.8-.69-.83-1.25-1.66-1.66-2.77s-.55-2.22-.55-3.47,.14-2.5,.55-3.47c.42-1.11,.97-1.94,1.8-2.77,.69-.83,1.66-1.39,2.64-1.8,1.11-.42,2.22-.69,3.47-.69,.69,0,1.25,0,1.8,.14,.56,.14,1.11,.28,1.53,.42,.56,.14,.97,.42,1.39,.69,.42,.28,.83,.56,1.11,.97l-1.39,1.8c-.14,.14-.14,.28-.28,.28-.14,.14-.28,.14-.55,.14-.14,0-.28,0-.42-.14-.14,0-.28-.14-.42-.28-.14-.14-.28-.14-.42-.28-.14-.14-.42-.14-.56-.28-.28-.14-.55-.14-.83-.28-.28,0-.69-.14-1.11-.14-.69,0-1.25,.14-1.8,.42-.56,.28-.97,.55-1.39,1.11-.42,.42-.69,.97-.97,1.66-.28,.69-.28,1.39-.28,2.36,0,.83,.14,1.66,.42,2.36,.28,.69,.55,1.25,.97,1.66s.83,.83,1.39,1.11c.55,.28,1.11,.42,1.8,.42h.97c.28,0,.56-.14,.83-.14,.28-.14,.56-.14,.69-.28,.28-.14,.42-.28,.69-.56q.14-.14,.28-.14c.42,0,.55-.14,.69-.14Z"/>
    <path class="cls-1" d="M182.69,138.96h6.38v3.19h-10.27v-17.06h4.02v13.87h-.14Z"/>
    <path class="cls-1" d="M195.04,142.16h-4.02v-17.06h4.02v17.06Z"/>
    <path class="cls-1" d="M200.86,125.09c.14,0,.28,0,.28,.14,.14,0,.14,.14,.28,.14q.14,.14,.28,.28l8.18,10.27c0-.28,0-.69-.14-.97v-9.85h3.47v17.06h-2.08c-.28,0-.56,0-.83-.14-.28-.14-.42-.28-.56-.56l-8.05-10.13v10.82h-3.47v-17.06h2.64Z"/>
    <path class="cls-1" d="M220.56,142.16h-4.02v-17.06h4.02v17.06Z"/>
    <path class="cls-1" d="M235.41,137.72h.28c.14,0,.14,.14,.28,.14l1.53,1.66c-.69,.83-1.53,1.53-2.64,2.08-.97,.42-2.22,.69-3.75,.69-1.25,0-2.5-.28-3.47-.69-.97-.42-1.94-1.11-2.64-1.8-.69-.83-1.25-1.66-1.66-2.77s-.56-2.22-.56-3.47,.14-2.5,.56-3.47c.42-1.11,.97-1.94,1.8-2.77,.83-.83,1.66-1.39,2.64-1.8,1.11-.42,2.22-.69,3.47-.69,.69,0,1.25,0,1.8,.14,.55,.14,1.11,.28,1.53,.42,.56,.14,.97,.42,1.39,.69s.83,.56,1.11,.97l-1.39,1.8c-.14,.14-.14,.28-.28,.28-.14,.14-.28,.14-.56,.14-.14,0-.28,0-.42-.14-.14,0-.28-.14-.42-.28-.14-.14-.28-.14-.42-.28-.14-.14-.42-.14-.55-.28-.28-.14-.55-.14-.83-.28-.28,0-.69-.14-1.11-.14-.69,0-1.25,.14-1.8,.42-.56,.28-.97,.55-1.39,1.11-.42,.42-.69,.97-.97,1.66-.28,.69-.28,1.39-.28,2.36,0,.83,.14,1.66,.42,2.36,.28,.69,.56,1.25,.97,1.66s.83,.83,1.39,1.11c.56,.28,1.11,.42,1.8,.42h.97c.28,0,.56-.14,.83-.14,.28-.14,.55-.14,.69-.28,.14-.14,.42-.28,.69-.56q.14-.14,.28-.14c.14,0,.55-.14,.69-.14Z"/>
  </g>
</svg>